<svg width="512" height="512" viewBox="0 0 512 512" fill="none" xmlns="http://www.w3.org/2000/svg">
  <rect width="512" height="512" rx="128" fill="#0f172a"/>
  <circle cx="256" cy="256" r="200" fill="url(#paint0_linear_4_2)" fill-opacity="0.1"/>
  <path d="M256 120C180.891 120 120 180.891 120 256C120 331.109 180.891 392 256 392C331.109 392 392 331.109 392 256C392 180.891 331.109 120 256 120ZM256 360C198.561 360 152 313.439 152 256C152 198.561 198.561 152 256 152C313.439 152 360 198.561 360 256C360 313.439 313.439 360 256 360Z" fill="#6366f1"/>
  <path d="M256 180L210 270H256L210 340L302 240H256L302 180H256Z" fill="#818cf8" stroke="#4f46e5" stroke-width="8" stroke-linejoin="round"/>
  <defs>
    <linearGradient id="paint0_linear_4_2" x1="256" y1="120" x2="256" y2="392" gradientUnits="userSpaceOnUse">
      <stop stop-color="#6366f1"/>
      <stop offset="1" stop-color="#4f46e5"/>
    </linearGradient>
  </defs>
</svg>