<svg width="512" height="512" viewBox="0 0 512 512" fill="none" xmlns="http://www.w3.org/2000/svg">
  <rect width="512" height="512" rx="120" fill="url(#paint0_linear)"/>
  <path d="M256 120C180.89 120 120 180.89 120 256C120 331.11 180.89 392 256 392C331.11 392 392 331.11 392 256C392 180.89 331.11 120 256 120ZM256 360C198.65 360 152 313.35 152 256C152 198.65 198.65 152 256 152C313.35 152 360 198.65 360 256C360 313.35 313.35 360 256 360Z" fill="white" fill-opacity="0.2"/>
  <path d="M310 240L220 188C213.333 184.151 205 188.962 205 196.655V315.345C205 323.038 213.333 327.849 220 324L310 272C316.667 268.151 316.667 258.516 310 254.667L310 240Z" fill="white"/>
  <path d="M256 180V210M256 302V332M332 256H302M210 256H180" stroke="white" stroke-width="12" stroke-linecap="round"/>
  <defs>
    <linearGradient id="paint0_linear" x1="0" y1="0" x2="512" y2="512" gradientUnits="userSpaceOnUse">
      <stop stop-color="#4F46E5"/>
      <stop offset="1" stop-color="#7C3AED"/>
    </linearGradient>
  </defs>
</svg>